<svg id="icn_folder" xmlns="http://www.w3.org/2000/svg" width="26" height="20.583" viewBox="0 0 26 20.583">
  <path id="Trazado_1" data-name="Trazado 1" d="M42.494,0H24.077a2.708,2.708,0,0,0-2.683,3.06.542.542,0,0,0,.3.416.551.551,0,0,0,.512-.02,1.537,1.537,0,0,1,.789-.207h3.857a1.636,1.636,0,0,1,1.54,1.1l.092.3A2.722,2.722,0,0,0,31.054,6.5H43.577a1.625,1.625,0,0,1,.809.217.543.543,0,0,0,.816-.468V2.708A2.708,2.708,0,0,0,42.494,0Z" transform="translate(-20.286)" fill="#b2a04f"/>
  <path id="Trazado_5" data-name="Trazado 5" d="M24.649,46.281a2.69,2.69,0,0,0-1.357-.366H10.768a1.636,1.636,0,0,1-1.54-1.1l-.091-.3a2.725,2.725,0,0,0-2.572-1.85H2.708a2.6,2.6,0,0,0-1.327.35A2.708,2.708,0,0,0,0,45.373v13a2.708,2.708,0,0,0,2.708,2.708H23.292A2.708,2.708,0,0,0,26,58.373v-9.75A2.691,2.691,0,0,0,24.649,46.281Z" transform="translate(0 -40.498)" fill="#eccb4e"/>
</svg>
